<svg viewBox="0 0 800 500" xmlns="http://www.w3.org/2000/svg">
  <defs>
    <linearGradient id="currGradient" x1="0" x2="0" y1="0" y2="1">
      <stop offset="0%" stop-color="#4f46e5" />
      <stop offset="100%" stop-color="#818cf8" />
    </linearGradient>
    <linearGradient id="prevGradient" x1="0" x2="0" y1="0" y2="1">
      <stop offset="0%" stop-color="#cbd5e1" />
      <stop offset="100%" stop-color="#94a3b8" />
    </linearGradient>
  </defs>

  <g text-anchor="middle" font-family="sans-serif">
    <text x="400" y="30" font-size="24" font-weight="bold" fill="#1e293b">Monthly Revenue 2024 vs 2023</text>
    <text x="400" y="55" font-size="14" fill="#64748b">Total: $4.2M (+18% YoY)</text>
  </g>

  <g transform="translate(60, 90)">
    <!-- Grid Lines -->
    <line x1="0" y1="360" x2="700" y2="360" stroke="#e2e8f0" stroke-width="2" />
    <g stroke="#e2e8f0" stroke-width="1" stroke-dasharray="4">
      <line x1="0" y1="288" x2="700" y2="288" />
      <line x1="0" y1="216" x2="700" y2="216" />
      <line x1="0" y1="144" x2="700" y2="144" />
      <line x1="0" y1="72" x2="700" y2="72" />
    </g>

    <!-- Y Axis Labels -->
    <text x="-10" y="365" text-anchor="end" font-family="sans-serif" font-size="12" fill="#64748b">$0K</text>
    <text x="-10" y="293" text-anchor="end" font-family="sans-serif" font-size="12" fill="#64748b">$100K</text>
    <text x="-10" y="221" text-anchor="end" font-family="sans-serif" font-size="12" fill="#64748b">$200K</text>
    <text x="-10" y="149" text-anchor="end" font-family="sans-serif" font-size="12" fill="#64748b">$300K</text>
    <text x="-10" y="77" text-anchor="end" font-family="sans-serif" font-size="12" fill="#64748b">$400K</text>
    <text x="-10" y="5" text-anchor="end" font-family="sans-serif" font-size="12" fill="#64748b">$500K</text>

    <!-- Bars Generator -->
    <g transform="translate(15, 0)">
      <g transform="translate(0, 0)">
        <rect x="0" y="280" width="18" height="80" fill="url(#prevGradient)" />
        <rect x="20" y="250" width="18" height="110" fill="url(#currGradient)" />
        <text x="19" y="385" text-anchor="middle" font-family="sans-serif" font-size="10">Jan</text>
      </g>
      <g transform="translate(58, 0)">
        <rect x="0" y="260" width="18" height="100" fill="url(#prevGradient)" />
        <rect x="20" y="210" width="18" height="150" fill="url(#currGradient)" />
        <text x="19" y="385" text-anchor="middle" font-family="sans-serif" font-size="10">Feb</text>
      </g>
      <g transform="translate(116, 0)">
        <rect x="0" y="200" width="18" height="160" fill="url(#prevGradient)" />
        <rect x="20" y="52" width="18" height="308" fill="url(#currGradient)" />
        <text x="19" y="385" text-anchor="middle" font-family="sans-serif" font-size="10">Mar</text>
      </g>
      <g transform="translate(174, 0)">
        <rect x="0" y="180" width="18" height="180" fill="url(#prevGradient)" />
        <rect x="20" y="140" width="18" height="220" fill="url(#currGradient)" />
        <text x="19" y="385" text-anchor="middle" font-family="sans-serif" font-size="10">Apr</text>
      </g>
      <g transform="translate(232, 0)">
        <rect x="0" y="150" width="18" height="210" fill="url(#prevGradient)" />
        <rect x="20" y="100" width="18" height="260" fill="url(#currGradient)" />
        <text x="19" y="385" text-anchor="middle" font-family="sans-serif" font-size="10">May</text>
      </g>
      <g transform="translate(290, 0)">
        <rect x="0" y="140" width="18" height="220" fill="url(#prevGradient)" />
        <rect x="20" y="80" width="18" height="280" fill="url(#currGradient)" />
        <text x="19" y="385" text-anchor="middle" font-family="sans-serif" font-size="10">Jun</text>
      </g>
      <g transform="translate(348, 0)">
        <rect x="0" y="160" width="18" height="200" fill="url(#prevGradient)" />
        <rect x="20" y="84" width="18" height="276" fill="url(#currGradient)" />
        <text x="19" y="385" text-anchor="middle" font-family="sans-serif" font-size="10">Jul</text>
      </g>
      <g transform="translate(406, 0)">
        <rect x="0" y="130" width="18" height="230" fill="url(#prevGradient)" />
        <rect x="20" y="60" width="18" height="300" fill="url(#currGradient)" />
        <text x="19" y="385" text-anchor="middle" font-family="sans-serif" font-size="10">Aug</text>
      </g>
      <g transform="translate(464, 0)">
        <rect x="0" y="150" width="18" height="210" fill="url(#prevGradient)" />
        <rect x="20" y="90" width="18" height="270" fill="url(#currGradient)" />
        <text x="19" y="385" text-anchor="middle" font-family="sans-serif" font-size="10">Sep</text>
      </g>
      <g transform="translate(522, 0)">
        <rect x="0" y="120" width="18" height="240" fill="url(#prevGradient)" />
        <rect x="20" y="50" width="18" height="310" fill="url(#currGradient)" />
        <text x="19" y="385" text-anchor="middle" font-family="sans-serif" font-size="10">Oct</text>
      </g>
      <g transform="translate(580, 0)">
        <rect x="0" y="100" width="18" height="260" fill="url(#prevGradient)" />
        <rect x="20" y="30" width="18" height="330" fill="url(#currGradient)" />
        <text x="19" y="385" text-anchor="middle" font-family="sans-serif" font-size="10">Nov</text>
      </g>
      <g transform="translate(638, 0)">
        <rect x="0" y="80" width="18" height="280" fill="url(#prevGradient)" />
        <rect x="20" y="10" width="18" height="350" fill="url(#currGradient)" />
        <text x="19" y="385" text-anchor="middle" font-family="sans-serif" font-size="10">Dec</text>
      </g>
    </g>
  </g>

  <!-- Legend -->
  <g transform="translate(450, 460)" font-family="sans-serif">
    <rect x="0" y="0" width="15" height="15" fill="#4f46e5" />
    <text x="25" y="12" font-size="12">2024 Revenue</text>
    <rect x="120" y="0" width="15" height="15" fill="#cbd5e1" />
    <text x="145" y="12" font-size="12">2023 Revenue</text>
  </g>
</svg>